Coordinates
version=1
nRows=13
nColumns=36
inDegrees=yes

Units are S.I. units (second, meters, Newtons, ...)
If the header above contains a line with 'inDegrees', this indicates whether rotational values are in degrees (yes) or radians (no).

endheader
time	pelvis_tilt	pelvis_list	pelvis_rotation	pelvis_tx	pelvis_ty	pelvis_tz	hip_flexion_r	hip_adduction_r	hip_rotation_r	knee_angle_r	knee_angle_r_beta	ankle_angle_r	subtalar_angle_r	mtp_angle_r	hip_flexion_l	hip_adduction_l	hip_rotation_l	knee_angle_l	knee_angle_l_beta	ankle_angle_l	subtalar_angle_l	mtp_angle_l	lumbar_extension	lumbar_bending	lumbar_rotation	arm_flex_r	arm_add_r	arm_rot_r	elbow_flex_r	pro_sup_r	arm_flex_l	arm_add_l	arm_rot_l	elbow_flex_l	pro_sup_l
      0.00000000	     -2.11806309	      0.77814587	     -4.01742453	     -0.06866247	      1.20322811	     -0.06991807	      3.33487873	     -2.04043630	     -8.79852294	     10.90056930	      0.19025082	      6.46036041	     -5.37506203	     -6.24111600	      3.44212488	     -2.53393076	     -8.85644375	      8.09177579	      0.14122813	      7.41378248	     -3.55783965	     -6.24111600	     -7.24896064	     -0.57894117	     -5.91289529	      6.57658634	    -12.05224543	     14.36522653	     35.27911201	     79.83705265	      1.26010987	    -12.91436618	      7.11408161	     38.48376437	     75.52285549
      0.01666670	     -2.86852146	      0.80596866	     -4.36662877	     -0.06869522	      1.20385226	     -0.07014101	      4.60541614	     -1.82152929	     -7.96589086	     11.76242733	      0.20529308	      9.75871535	     -4.06480249	     -6.32090524	      4.09920024	     -2.19619515	    -10.08525322	      7.63301609	      0.13322126	      8.19635475	     -2.53957086	     -6.32090524	     -6.03038344	     -0.42566890	     -5.68808401	      6.37607330	    -11.63326831	     12.57884616	     34.97719364	     79.06711895	      1.68852290	    -12.05564789	      5.57889514	     38.02089029	     75.24999954
      0.03333330	     -3.68823382	      1.29784146	     -4.17252949	     -0.06668803	      1.20360743	     -0.07034587	      5.14897597	     -2.12586847	     -7.76229409	     11.20646646	      0.19558974	     10.35607233	     -4.22059368	     -6.39536518	      4.69342880	     -1.69702053	    -10.69512226	      7.15013275	      0.12479336	      8.24688476	     -2.89574889	     -6.39536518	     -5.00234938	     -1.13600164	     -5.75120908	      5.41860764	    -11.50525349	     11.48447855	     36.35091894	     77.65966855	      1.28870793	    -12.29930017	      5.06708084	     39.10898831	     74.15567521
      0.05000000	     -2.96312777	      1.47664331	     -4.04049782	     -0.07025598	      1.20402112	     -0.07018188	      4.38521126	     -2.42266709	     -8.38191695	     10.89055751	      0.19007609	     10.99855052	     -2.42134840	     -6.49456102	      3.85233233	     -1.39072908	    -11.41697402	      6.99434251	      0.12207431	      8.72551770	     -2.02463958	     -6.49456102	     -5.80984829	     -1.39301378	     -5.49486733	      5.57780166	    -10.31733714	      6.84899137	     34.97310127	     77.08179242	      2.61044093	    -11.92974835	      3.88546693	     36.83167598	     74.84474651
      0.06666670	     -2.95913099	      1.64345635	     -3.97933590	     -0.06955542	      1.20273830	     -0.07019370	      4.36916795	     -2.54970029	     -8.09015694	     10.65062104	      0.18588840	     10.92473448	     -2.31926105	     -6.54969446	      3.85997393	     -1.13935052	    -11.37905336	      6.89868000	      0.12040468	      8.73230085	     -2.25929775	     -6.54969446	     -5.90654439	     -1.54614259	     -5.34890786	      5.04757586	    -10.17878237	      6.07289553	     35.78718269	     76.54009793	      2.53749190	    -12.02278437	      3.56404217	     37.36170429	     74.52341773
      0.08333330	     -2.54016184	      1.68338915	     -3.94911972	     -0.06936909	      1.20333255	     -0.06949966	      3.83011818	     -2.54845958	     -7.83031038	     10.48604437	      0.18301600	     10.73986537	     -2.68333671	     -6.65514067	      3.47626612	     -1.04704506	    -11.51332222	      6.88920725	      0.12023935	      8.80847531	     -2.51031294	     -6.65514067	     -6.61802218	     -1.61100847	     -4.94356922	      4.48594908	     -9.90370119	      4.26491768	     36.56720138	     75.22979912	      2.76624350	    -11.88165033	      2.71344879	     37.76022048	     73.62725219
      0.10000000	     -2.43668258	      1.62732440	     -3.96698732	     -0.07038940	      1.20231018	     -0.07020848	      3.73024404	     -2.46576422	     -7.77954467	     10.50453182	      0.18333867	     10.81245158	     -3.04482215	     -6.74009465	      3.51359721	     -1.07298389	    -11.46370066	      6.94040160	      0.12113286	      8.94560684	     -2.65676214	     -6.74009465	     -7.00650268	     -1.53213969	     -4.54718399	      4.02916288	     -9.72947389	      2.91734764	     36.71588424	     74.54984223	      3.11651019	    -11.65423640	      2.09820728	     37.68746228	     73.28845207
      0.11666670	     -2.58474870	      1.55481736	     -4.00596987	     -0.07129974	      1.20134032	     -0.06991312	      3.98957021	     -2.32331736	     -7.54983854	     10.62914503	      0.18551358	     10.70200595	     -3.67285743	     -7.04708788	      3.80796696	     -1.19610179	    -11.44137205	      7.05098817	      0.12306296	      9.05708860	     -2.62417689	     -7.04708788	     -6.92684735	     -1.45172934	     -3.46485610	      2.88279981	     -9.32956686	     -0.91833593	     37.14953224	     80.64045229	      4.13528375	    -11.26082235	      1.66867082	     36.33529702	     81.10775991
      0.13333330	     -2.52782104	      1.48245560	     -4.07380485	     -0.06975784	      1.20425836	     -0.07016165	      3.86214587	     -2.22526404	     -7.45962049	     10.55003325	      0.18413282	     10.43833381	     -4.05703087	     -7.08182789	      3.70988724	     -1.29144281	    -11.46981560	      7.01012617	      0.12234978	      8.92613762	     -2.57942993	     -7.08182789	     -7.19619857	     -1.33452424	     -3.34084889	      2.50984171	     -9.34568168	     -0.94876254	     37.34805338	     79.64056428	      3.92846140	    -11.18072727	      1.33311634	     36.86971582	     80.05623589
      0.15000000	     -2.69154157	      1.51612262	     -4.05309698	     -0.06962722	      1.20518129	     -0.07043047	      3.98126546	     -2.25968020	     -7.45820970	     10.52064323	      0.18361986	     10.15385414	     -4.17492828	     -7.13544941	      3.83504616	     -1.25787840	    -11.42247928	      6.96141591	      0.12149963	      8.64103681	     -2.77583113	     -7.13544941	     -6.95711480	     -1.31666025	     -3.46261484	      2.51529365	     -9.27134264	     -0.60322397	     36.39206237	     79.11434378	      3.87192543	    -11.08686198	      1.20190148	     36.38787989	     79.51375955
      0.16666670	     -2.64841363	      1.45857889	     -4.07508680	     -0.07031184	      1.20182584	     -0.07079493	      4.00541098	     -2.22524035	     -7.40857738	     10.58195596	      0.18468997	      9.84574070	     -4.59566545	     -7.16547817	      3.71218744	     -1.29565502	    -11.44980035	      6.94844394	      0.12127322	      8.43313911	     -3.00455462	     -7.16547817	     -7.24485862	     -1.18298421	     -3.45764785	      2.12349706	     -9.32784137	     -0.57067890	     36.69017163	     78.29105597	      3.58721659	    -11.08673460	      1.16735555	     36.96879021	     78.71931067
      0.18333330	     -2.60431881	      1.39808120	     -4.06610559	     -0.06891605	      1.20126559	     -0.07069789	      4.03528616	     -2.19269339	     -7.44373258	     10.67686468	      0.18634644	      9.64387944	     -4.90509675	     -7.19264963	      3.54036191	     -1.34850105	    -11.46897909	      6.88746313	      0.12020891	      8.17876453	     -3.21594081	     -7.19264963	     -7.34916857	     -1.11729241	     -3.50441242	      1.89159268	     -9.35386948	     -0.49970139	     36.38334244	     77.73501232	      3.39479366	    -11.11816250	      1.28159731	     37.01086270	     78.22346625
      0.20000000	     -2.71070685	      1.36019881	     -4.07237618	     -0.07169239	      1.20169881	     -0.07092198	      4.30542246	     -2.20652371	     -7.42601070	     10.59615141	      0.18493773	      9.29875058	     -5.56108438	     -7.21865535	      3.71883351	     -1.41136552	    -11.68633361	      6.85707010	      0.11967845	      7.99583369	     -3.38947566	     -7.21865535	     -7.36780137	     -1.03184712	     -3.48745164	      1.72809188	     -9.37900220	     -0.29731520	     35.95377236	     77.18006317	      3.31666245	    -11.10672121	      1.53988453	     36.86164318	     77.74305275
